<svg width="30" height="30" viewBox="0 0 30 30" fill="none" xmlns="http://www.w3.org/2000/svg">
<g clip-path="url(#clip0_2_80)">
<path d="M10.7648 12H11.7059V13H10.7648V12Z" fill="#E2963B"/>
<path d="M11.7059 12H12.647V13H11.7059V12Z" fill="#FFDDB8"/>
<path d="M12.647 12H13.5882V13H12.647V12Z" fill="#FFDDB8"/>
<path d="M13.5882 12H14.5293V13H13.5882V12Z" fill="#FFDDB8"/>
<path d="M14.5293 12H15.4705V13H14.5293V12Z" fill="#FFDDB8"/>
<path d="M15.4707 12H16.4118V13H15.4707V12Z" fill="#FFDDB8"/>
<path d="M16.4118 12H17.353V13H16.4118V12Z" fill="#FFDDB8"/>
<path d="M17.353 12H18.2941V13H17.353V12Z" fill="#FFDDB8"/>
<path d="M18.2941 12H19.2352V13H18.2941V12Z" fill="#FFDDB8"/>
<path d="M19.2352 12H20.1764V13H19.2352V12Z" fill="#FFDDB8"/>
<path d="M21.1177 12H22.0589V13H21.1177V12Z" fill="#FFDDB8"/>
<path d="M21.1177 13H22.0589V14H21.1177V13Z" fill="#FFB757"/>
<path d="M22.0589 13H23V14H22.0589V13Z" fill="#FFDDB8"/>
<path d="M19.2352 13H20.1764V14H19.2352V13Z" fill="#FFB757"/>
<path d="M20.1766 13H21.1177V14H20.1766V13Z" fill="#FFB757"/>
<path d="M17.353 13H18.2941V14H17.353V13Z" fill="#FFB757"/>
<path d="M18.2941 13H19.2352V14H18.2941V13Z" fill="#FFB757"/>
<path d="M15.4707 13H16.4118V14H15.4707V13Z" fill="#FFB757"/>
<path d="M16.4118 13H17.353V14H16.4118V13Z" fill="#FFB757"/>
<path d="M13.5882 13H14.5293V14H13.5882V13Z" fill="#FFB757"/>
<path d="M14.5293 13H15.4705V14H14.5293V13Z" fill="#FFB757"/>
<path d="M11.7059 13H12.647V14H11.7059V13Z" fill="#FFB757"/>
<path d="M10.7648 13H11.7059V14H10.7648V13Z" fill="#E2963B"/>
<path d="M12.647 13H13.5882V14H12.647V13Z" fill="#FFB757"/>
<path d="M22.0589 13.9999H23V14.9999H22.0589V13.9999Z" fill="#FFDDB8"/>
<path d="M22.0589 14.9999H23V15.9998H22.0589V14.9999Z" fill="#FFDDB8"/>
<path d="M22.0589 16.0001H23V17H22.0589V16.0001Z" fill="#FFDDB8"/>
<path d="M22.0589 17H23V18H22.0589V17Z" fill="#FFDDB8"/>
<path d="M22.0589 18H23V18.9999H22.0589V18Z" fill="#FFDDB8"/>
<path d="M22.0589 18.9999H23V19.9999H22.0589V18.9999Z" fill="#FFDDB8"/>
<path d="M22.0589 19.9999H23V20.9998H22.0589V19.9999Z" fill="#FFDDB8"/>
<path d="M21.1177 21.0001H22.0589V22H21.1177V21.0001Z" fill="#E2963B"/>
<path d="M19.2352 21.0001H20.1764V22H19.2352V21.0001Z" fill="#E2963B"/>
<path d="M20.1766 12H21.1177V13H20.1766V12Z" fill="#FFDDB8"/>
<path d="M20.1766 21.0001H21.1177V22H20.1766V21.0001Z" fill="#E2963B"/>
<path d="M18.2941 21.0001H19.2352V22H18.2941V21.0001Z" fill="#E2963B"/>
<path d="M17.353 21.0001H18.2941V22H17.353V21.0001Z" fill="#E2963B"/>
<path d="M16.4118 21.0001H17.353V22H16.4118V21.0001Z" fill="#E2963B"/>
<path d="M15.4707 21.0001H16.4118V22H15.4707V21.0001Z" fill="#E2963B"/>
<path d="M14.5293 21.0001H15.4705V22H14.5293V21.0001Z" fill="#E2963B"/>
<path d="M13.5882 21.0001H14.5293V22H13.5882V21.0001Z" fill="#E2963B"/>
<path d="M12.647 21.0001H13.5882V22H12.647V21.0001Z" fill="#E2963B"/>
<path d="M11.7059 21.0001H12.647V22H11.7059V21.0001Z" fill="#E2963B"/>
<path d="M10.7648 21.0001H11.7059V22H10.7648V21.0001Z" fill="#E2963B"/>
<path d="M9.82342 21.0001H10.7646V22H9.82342V21.0001Z" fill="#E2963B"/>
<path d="M9.82342 13H10.7646V14H9.82342V13Z" fill="#E2963B"/>
<path d="M9.82342 13.9999H10.7646V14.9999H9.82342V13.9999Z" fill="#E2963B"/>
<path d="M9.82342 14.9999H10.7646V15.9998H9.82342V14.9999Z" fill="#E2963B"/>
<path d="M9.82342 16.0001H10.7646V17H9.82342V16.0001Z" fill="#E2963B"/>
<path d="M9.82342 17H10.7646V18H9.82342V17Z" fill="#E2963B"/>
<path d="M9.82342 18H10.7646V18.9999H9.82342V18Z" fill="#E2963B"/>
<path d="M9.82342 18.9999H10.7646V19.9999H9.82342V18.9999Z" fill="#E2963B"/>
<path d="M9.82342 19.9999H10.7646V20.9998H9.82342V19.9999Z" fill="#E2963B"/>
<path d="M8.88228 21.0001H9.82342V22H8.88228V21.0001Z" fill="#E2963B"/>
<path d="M7.94114 21.0001H8.88228V22H7.94114V21.0001Z" fill="#E2963B"/>
<path d="M7 19.9999H7.94114V20.9998H7V19.9999Z" fill="#FFB757"/>
<path d="M7 18.9999H7.94114V19.9999H7V18.9999Z" fill="#FFB757"/>
<path d="M7 18H7.94114V18.9999H7V18Z" fill="#FFB757"/>
<path d="M7 17H7.94114V18H7V17Z" fill="#FFB757"/>
<path d="M7 16.0001H7.94114V17H7V16.0001Z" fill="#FFB757"/>
<path d="M7 14.9999H7.94114V15.9998H7V14.9999Z" fill="#FFB757"/>
<path d="M7 13.9999H7.94114V14.9999H7V13.9999Z" fill="#FFB757"/>
<path d="M7 13H7.94114V14H7V13Z" fill="#FFB757"/>
<path d="M7 12H7.94114V13H7V12Z" fill="#FFB757"/>
<path d="M7 11.0001H7.94114V12H7V11.0001Z" fill="#FFB757"/>
<path d="M7 9.99991H7.94114V10.9999H7V9.99991Z" fill="#FFB757"/>
<path d="M8.88228 8.99994H9.82342V9.99989H8.88228V8.99994Z" fill="#FFDDB8"/>
<path d="M7.94114 8.99994H8.88228V9.99989H7.94114V8.99994Z" fill="#FFDDB8"/>
<path d="M9.82342 8.99994H10.7646V9.99989H9.82342V8.99994Z" fill="#FFDDB8"/>
<path d="M10.7648 8.99994H11.7059V9.99989H10.7648V8.99994Z" fill="#FFDDB8"/>
<path d="M11.7059 8.99994H12.647V9.99989H11.7059V8.99994Z" fill="#FFDDB8"/>
<path d="M12.647 8.99994H13.5882V9.99989H12.647V8.99994Z" fill="#FFDDB8"/>
<path d="M13.5882 8.99994H14.5293V9.99989H13.5882V8.99994Z" fill="#FFDDB8"/>
<path d="M14.5293 8.99994H15.4705V9.99989H14.5293V8.99994Z" fill="#FFDDB8"/>
<path d="M15.4707 8.99994H16.4118V9.99989H15.4707V8.99994Z" fill="#E2963B"/>
<path d="M15.4707 8H16.4118V8.99995H15.4707V8Z" fill="#E2963B"/>
<path d="M16.4118 8H17.353V8.99995H16.4118V8Z" fill="#FFDDB8"/>
<path d="M17.353 8H18.2941V8.99995H17.353V8Z" fill="#FFDDB8"/>
<path d="M18.2941 8H19.2352V8.99995H18.2941V8Z" fill="#FFDDB8"/>
<path d="M19.2352 8H20.1764V8.99995H19.2352V8Z" fill="#FFDDB8"/>
<path d="M20.1766 8H21.1177V8.99995H20.1766V8Z" fill="#FFDDB8"/>
<path d="M21.1177 8H22.0589V8.99995H21.1177V8Z" fill="#FFDDB8"/>
<path d="M16.4118 8.99994H17.353V9.99989H16.4118V8.99994Z" fill="#FFB757"/>
<path d="M17.353 8.99994H18.2941V9.99989H17.353V8.99994Z" fill="#FFB757"/>
<path d="M18.2941 8.99994H19.2352V9.99989H18.2941V8.99994Z" fill="#FFB757"/>
<path d="M19.2352 8.99994H20.1764V9.99989H19.2352V8.99994Z" fill="#FFB757"/>
<path d="M20.1766 8.99994H21.1177V9.99989H20.1766V8.99994Z" fill="#FFB757"/>
<path d="M21.1177 8.99994H22.0589V9.99989H21.1177V8.99994Z" fill="#FFDDB8"/>
<path d="M21.1177 9.99991H22.0589V10.9999H21.1177V9.99991Z" fill="#FFDDB8"/>
<path d="M21.1177 11.0001H22.0589V12H21.1177V11.0001Z" fill="#FFDDB8"/>
<path d="M20.1766 9.99991H21.1177V10.9999H20.1766V9.99991Z" fill="#FFB757"/>
<path d="M20.1766 11.0001H21.1177V12H20.1766V11.0001Z" fill="#FFB757"/>
<path d="M19.2352 9.99991H20.1764V10.9999H19.2352V9.99991Z" fill="#FFB757"/>
<path d="M19.2352 11.0001H20.1764V12H19.2352V11.0001Z" fill="#FFB757"/>
<path d="M18.2941 9.99991H19.2352V10.9999H18.2941V9.99991Z" fill="#FFB757"/>
<path d="M18.2941 11.0001H19.2352V12H18.2941V11.0001Z" fill="#FFB757"/>
<path d="M17.353 9.99991H18.2941V10.9999H17.353V9.99991Z" fill="#FFB757"/>
<path d="M17.353 11.0001H18.2941V12H17.353V11.0001Z" fill="#FFB757"/>
<path d="M16.4118 9.99991H17.353V10.9999H16.4118V9.99991Z" fill="#FFB757"/>
<path d="M16.4118 11.0001H17.353V12H16.4118V11.0001Z" fill="#FFB757"/>
<path d="M15.4707 9.99991H16.4118V10.9999H15.4707V9.99991Z" fill="#FFB757"/>
<path d="M15.4707 11.0001H16.4118V12H15.4707V11.0001Z" fill="#FFB757"/>
<path d="M14.5293 9.99991H15.4705V10.9999H14.5293V9.99991Z" fill="#FFB757"/>
<path d="M14.5293 11.0001H15.4705V12H14.5293V11.0001Z" fill="#FFB757"/>
<path d="M13.5882 9.99991H14.5293V10.9999H13.5882V9.99991Z" fill="#FFB757"/>
<path d="M13.5882 11.0001H14.5293V12H13.5882V11.0001Z" fill="#FFB757"/>
<path d="M12.647 9.99991H13.5882V10.9999H12.647V9.99991Z" fill="#FFB757"/>
<path d="M12.647 11.0001H13.5882V12H12.647V11.0001Z" fill="#FFB757"/>
<path d="M11.7059 9.99991H12.647V10.9999H11.7059V9.99991Z" fill="#FFB757"/>
<path d="M11.7059 11.0001H12.647V12H11.7059V11.0001Z" fill="#FFB757"/>
<path d="M10.7648 9.99991H11.7059V10.9999H10.7648V9.99991Z" fill="#FFB757"/>
<path d="M10.7648 11.0001H11.7059V12H10.7648V11.0001Z" fill="#FFB757"/>
<path d="M9.82342 9.99991H10.7646V10.9999H9.82342V9.99991Z" fill="#FFB757"/>
<path d="M9.82342 11.0001H10.7646V12H9.82342V11.0001Z" fill="#FFB757"/>
<path d="M8.88228 9.99991H9.82342V10.9999H8.88228V9.99991Z" fill="#FFB757"/>
<path d="M8.88228 11.0001H9.82342V12H8.88228V11.0001Z" fill="#FFB757"/>
<path d="M7.94114 9.99991H8.88228V10.9999H7.94114V9.99991Z" fill="#FFB757"/>
<path d="M7.94114 11.0001H8.88228V12H7.94114V11.0001Z" fill="#FFB757"/>
<path d="M9.82342 12H10.7646V13H9.82342V12Z" fill="#FFB757"/>
<path d="M8.88228 12H9.82342V13H8.88228V12Z" fill="#FFB757"/>
<path d="M7.94114 12H8.88228V13H7.94114V12Z" fill="#FFB757"/>
<path d="M8.88228 13H9.82342V14H8.88228V13Z" fill="#FFB757"/>
<path d="M7.94114 13H8.88228V14H7.94114V13Z" fill="#FFB757"/>
<path d="M21.1177 13.9999H22.0589V14.9999H21.1177V13.9999Z" fill="#FFB757"/>
<path d="M19.2352 13.9999H20.1764V14.9999H19.2352V13.9999Z" fill="#FFB757"/>
<path d="M20.1766 13.9999H21.1177V14.9999H20.1766V13.9999Z" fill="#FFB757"/>
<path d="M17.353 13.9999H18.2941V14.9999H17.353V13.9999Z" fill="#FFB757"/>
<path d="M18.2941 13.9999H19.2352V14.9999H18.2941V13.9999Z" fill="#FFB757"/>
<path d="M15.4707 13.9999H16.4118V14.9999H15.4707V13.9999Z" fill="#FFB757"/>
<path d="M16.4118 13.9999H17.353V14.9999H16.4118V13.9999Z" fill="#FFB757"/>
<path d="M13.5882 13.9999H14.5293V14.9999H13.5882V13.9999Z" fill="#FFB757"/>
<path d="M14.5293 13.9999H15.4705V14.9999H14.5293V13.9999Z" fill="#FFB757"/>
<path d="M11.7059 13.9999H12.647V14.9999H11.7059V13.9999Z" fill="#FFB757"/>
<path d="M12.647 13.9999H13.5882V14.9999H12.647V13.9999Z" fill="#FFB757"/>
<path d="M8.88228 13.9999H9.82342V14.9999H8.88228V13.9999Z" fill="#FFB757"/>
<path d="M7.94114 13.9999H8.88228V14.9999H7.94114V13.9999Z" fill="#FFB757"/>
<path d="M21.1177 14.9999H22.0589V15.9998H21.1177V14.9999Z" fill="#FFB757"/>
<path d="M19.2352 14.9999H20.1764V15.9998H19.2352V14.9999Z" fill="#FFB757"/>
<path d="M20.1766 14.9999H21.1177V15.9998H20.1766V14.9999Z" fill="#FFB757"/>
<path d="M17.353 14.9999H18.2941V15.9998H17.353V14.9999Z" fill="#FFB757"/>
<path d="M18.2941 14.9999H19.2352V15.9998H18.2941V14.9999Z" fill="#FFB757"/>
<path d="M15.4707 14.9999H16.4118V15.9998H15.4707V14.9999Z" fill="#FFB757"/>
<path d="M16.4118 14.9999H17.353V15.9998H16.4118V14.9999Z" fill="#FFB757"/>
<path d="M13.5882 14.9999H14.5293V15.9998H13.5882V14.9999Z" fill="#FFB757"/>
<path d="M14.5293 14.9999H15.4705V15.9998H14.5293V14.9999Z" fill="#FFB757"/>
<path d="M11.7059 14.9999H12.647V15.9998H11.7059V14.9999Z" fill="#FFB757"/>
<path d="M12.647 14.9999H13.5882V15.9998H12.647V14.9999Z" fill="#FFB757"/>
<path d="M8.88228 14.9999H9.82342V15.9998H8.88228V14.9999Z" fill="#FFB757"/>
<path d="M7.94114 14.9999H8.88228V15.9998H7.94114V14.9999Z" fill="#FFB757"/>
<path d="M21.1177 16.0001H22.0589V17H21.1177V16.0001Z" fill="#FFB757"/>
<path d="M19.2352 16.0001H20.1764V17H19.2352V16.0001Z" fill="#FFB757"/>
<path d="M20.1766 16.0001H21.1177V17H20.1766V16.0001Z" fill="#FFB757"/>
<path d="M17.353 16.0001H18.2941V17H17.353V16.0001Z" fill="#FFB757"/>
<path d="M18.2941 16.0001H19.2352V17H18.2941V16.0001Z" fill="#FFB757"/>
<path d="M15.4707 16.0001H16.4118V17H15.4707V16.0001Z" fill="#FFB757"/>
<path d="M16.4118 16.0001H17.353V17H16.4118V16.0001Z" fill="#FFB757"/>
<path d="M13.5882 16.0001H14.5293V17H13.5882V16.0001Z" fill="#FFB757"/>
<path d="M14.5293 16.0001H15.4705V17H14.5293V16.0001Z" fill="#FFB757"/>
<path d="M11.7059 16.0001H12.647V17H11.7059V16.0001Z" fill="#FFB757"/>
<path d="M12.647 16.0001H13.5882V17H12.647V16.0001Z" fill="#FFB757"/>
<path d="M8.88228 16.0001H9.82342V17H8.88228V16.0001Z" fill="#FFB757"/>
<path d="M7.94114 16.0001H8.88228V17H7.94114V16.0001Z" fill="#FFB757"/>
<path d="M21.1177 17H22.0589V18H21.1177V17Z" fill="#FFB757"/>
<path d="M19.2352 17H20.1764V18H19.2352V17Z" fill="#FFB757"/>
<path d="M20.1766 17H21.1177V18H20.1766V17Z" fill="#FFB757"/>
<path d="M17.353 17H18.2941V18H17.353V17Z" fill="#FFB757"/>
<path d="M18.2941 17H19.2352V18H18.2941V17Z" fill="#FFB757"/>
<path d="M15.4707 17H16.4118V18H15.4707V17Z" fill="#FFB757"/>
<path d="M16.4118 17H17.353V18H16.4118V17Z" fill="#FFB757"/>
<path d="M13.5882 17H14.5293V18H13.5882V17Z" fill="#FFB757"/>
<path d="M14.5293 17H15.4705V18H14.5293V17Z" fill="#FFB757"/>
<path d="M11.7059 17H12.647V18H11.7059V17Z" fill="#FFB757"/>
<path d="M12.647 17H13.5882V18H12.647V17Z" fill="#FFB757"/>
<path d="M8.88228 17H9.82342V18H8.88228V17Z" fill="#FFB757"/>
<path d="M7.94114 17H8.88228V18H7.94114V17Z" fill="#FFB757"/>
<path d="M21.1177 18H22.0589V18.9999H21.1177V18Z" fill="#FFB757"/>
<path d="M19.2352 18H20.1764V18.9999H19.2352V18Z" fill="#FFB757"/>
<path d="M20.1766 18H21.1177V18.9999H20.1766V18Z" fill="#FFB757"/>
<path d="M17.353 18H18.2941V18.9999H17.353V18Z" fill="#FFB757"/>
<path d="M18.2941 18H19.2352V18.9999H18.2941V18Z" fill="#FFB757"/>
<path d="M15.4707 18H16.4118V18.9999H15.4707V18Z" fill="#FFB757"/>
<path d="M16.4118 18H17.353V18.9999H16.4118V18Z" fill="#FFB757"/>
<path d="M13.5882 18H14.5293V18.9999H13.5882V18Z" fill="#FFB757"/>
<path d="M14.5293 18H15.4705V18.9999H14.5293V18Z" fill="#FFB757"/>
<path d="M11.7059 18H12.647V18.9999H11.7059V18Z" fill="#FFB757"/>
<path d="M12.647 18H13.5882V18.9999H12.647V18Z" fill="#FFB757"/>
<path d="M8.88228 18H9.82342V18.9999H8.88228V18Z" fill="#FFB757"/>
<path d="M7.94114 18H8.88228V18.9999H7.94114V18Z" fill="#FFB757"/>
<path d="M21.1177 18.9999H22.0589V19.9999H21.1177V18.9999Z" fill="#FFB757"/>
<path d="M19.2352 18.9999H20.1764V19.9999H19.2352V18.9999Z" fill="#FFB757"/>
<path d="M20.1766 18.9999H21.1177V19.9999H20.1766V18.9999Z" fill="#FFB757"/>
<path d="M17.353 18.9999H18.2941V19.9999H17.353V18.9999Z" fill="#FFB757"/>
<path d="M18.2941 18.9999H19.2352V19.9999H18.2941V18.9999Z" fill="#FFB757"/>
<path d="M15.4707 18.9999H16.4118V19.9999H15.4707V18.9999Z" fill="#FFB757"/>
<path d="M16.4118 18.9999H17.353V19.9999H16.4118V18.9999Z" fill="#FFB757"/>
<path d="M13.5882 18.9999H14.5293V19.9999H13.5882V18.9999Z" fill="#FFB757"/>
<path d="M14.5293 18.9999H15.4705V19.9999H14.5293V18.9999Z" fill="#FFB757"/>
<path d="M11.7059 18.9999H12.647V19.9999H11.7059V18.9999Z" fill="#FFB757"/>
<path d="M12.647 18.9999H13.5882V19.9999H12.647V18.9999Z" fill="#FFB757"/>
<path d="M8.88228 18.9999H9.82342V19.9999H8.88228V18.9999Z" fill="#FFB757"/>
<path d="M7.94114 18.9999H8.88228V19.9999H7.94114V18.9999Z" fill="#FFB757"/>
<path d="M21.1177 19.9999H22.0589V20.9998H21.1177V19.9999Z" fill="#FFB757"/>
<path d="M19.2352 19.9999H20.1764V20.9998H19.2352V19.9999Z" fill="#FFB757"/>
<path d="M20.1766 19.9999H21.1177V20.9998H20.1766V19.9999Z" fill="#FFB757"/>
<path d="M17.353 19.9999H18.2941V20.9998H17.353V19.9999Z" fill="#FFB757"/>
<path d="M18.2941 19.9999H19.2352V20.9998H18.2941V19.9999Z" fill="#FFB757"/>
<path d="M15.4707 19.9999H16.4118V20.9998H15.4707V19.9999Z" fill="#FFB757"/>
<path d="M16.4118 19.9999H17.353V20.9998H16.4118V19.9999Z" fill="#FFB757"/>
<path d="M13.5882 19.9999H14.5293V20.9998H13.5882V19.9999Z" fill="#FFB757"/>
<path d="M14.5293 19.9999H15.4705V20.9998H14.5293V19.9999Z" fill="#FFB757"/>
<path d="M11.7059 19.9999H12.647V20.9998H11.7059V19.9999Z" fill="#FFB757"/>
<path d="M10.7648 13.9999H11.7059V14.9999H10.7648V13.9999Z" fill="#FFB757"/>
<path d="M10.7648 14.9999H11.7059V15.9998H10.7648V14.9999Z" fill="#FFB757"/>
<path d="M10.7648 16.0001H11.7059V17H10.7648V16.0001Z" fill="#FFB757"/>
<path d="M10.7648 17H11.7059V18H10.7648V17Z" fill="#FFB757"/>
<path d="M10.7648 18H11.7059V18.9999H10.7648V18Z" fill="#FFB757"/>
<path d="M10.7648 18.9999H11.7059V19.9999H10.7648V18.9999Z" fill="#FFB757"/>
<path d="M10.7648 19.9999H11.7059V20.9998H10.7648V19.9999Z" fill="#FFB757"/>
<path d="M12.647 19.9999H13.5882V20.9998H12.647V19.9999Z" fill="#FFB757"/>
<path d="M8.88228 19.9999H9.82342V20.9998H8.88228V19.9999Z" fill="#FFB757"/>
<path d="M7.94114 19.9999H8.88228V20.9998H7.94114V19.9999Z" fill="#FFB757"/>
</g>
<defs>
<clipPath id="clip0_2_80">
<rect width="16" height="14" fill="white" transform="matrix(-1 0 0 1 23 8)"/>
</clipPath>
</defs>
</svg>
