<svg width="30" height="30" viewBox="0 0 30 30" fill="none" xmlns="http://www.w3.org/2000/svg">
<g clip-path="url(#clip0_4_154)">
<path d="M18.8475 15.8562H18.0734V16.7125H18.8475V15.8562Z" fill="#313131"/>
<path d="M18.8475 12.4313H18.0734V13.2876H18.8475V12.4313Z" fill="#313131"/>
<path d="M18.0734 16.7124H17.305V17.5687H18.0734V16.7124Z" fill="#313131"/>
<path d="M18.0734 11.5687H17.305V12.4313H18.0734V11.5687Z" fill="#313131"/>
<path d="M17.305 17.5687H16.5367V18.4249H17.305V17.5687Z" fill="#313131"/>
<path d="M17.305 10.7124H16.5367V11.5687H17.305V10.7124Z" fill="#313131"/>
<path d="M14.2317 17.5687H13.4633V18.4249H14.2317V17.5687Z" fill="#313131"/>
<path d="M17.305 14.1438H16.5367V15H17.305V14.1438Z" fill="#742A1E"/>
<path d="M16.5367 13.2876H15.7683V14.1438H16.5367V13.2876Z" fill="#742A1E"/>
<path d="M15.7683 14.1438H15V13.2876H14.2317V14.1438H13.4633V15H14.2317V15.8562H15V16.7124H15.7683V15.8562H16.5367V15H15.7683V14.1438Z" fill="#742A1E"/>
<path d="M15.7683 12.4313H15V13.2876H15.7683V12.4313Z" fill="#742A1E"/>
<path d="M17.305 15H16.5367V15.8562H17.305V15Z" fill="#80FF00"/>
<path d="M17.305 13.2876H16.5367V14.1438H17.305V13.2876Z" fill="#80FF00"/>
<path d="M16.5367 15.8562H15.7683V16.7124H16.5367V15.8562Z" fill="#80FF00"/>
<path d="M16.5367 12.4313H15.7683V13.2876H16.5367V12.4313Z" fill="#80FF00"/>
<path d="M15 15.8562H14.2317V16.7124H15V15.8562Z" fill="#80FF00"/>
<path d="M15 12.4313H14.2317V13.2876H15V12.4313Z" fill="#80FF00"/>
<path d="M14.2317 15H13.4633V15.8562H14.2317V15Z" fill="#80FF00"/>
<path d="M14.2317 13.2876H13.4633V14.1438H14.2317V13.2876Z" fill="#80FF00"/>
<path d="M14.2317 10.7124H13.4633V11.5687H14.2317V10.7124Z" fill="#313131"/>
<path d="M13.4633 16.7124H12.695V17.5687H13.4633V16.7124Z" fill="#313131"/>
<path d="M17.305 13.2876V14.1438V15V15.8562H18.0733V15V14.1438V13.2876H17.305Z" fill="#FFA600"/>
<path d="M17.305 15.8562H16.5367V16.7125H17.305V15.8562Z" fill="#FFA600"/>
<path d="M17.305 12.4313H16.5367V13.2876H17.305V12.4313Z" fill="#FFA600"/>
<path d="M15 16.7124H14.2317V17.5687H15H15.7683H16.5367V16.7124H15.7683H15Z" fill="#FFA600"/>
<path d="M15.7683 12.4313H16.5367V11.5687H15.7683H15H14.2317V12.4313H15H15.7683Z" fill="#FFA600"/>
<path d="M14.2317 15.8562H13.4633V16.7125H14.2317V15.8562Z" fill="#FFA600"/>
<path d="M14.2317 12.4313H13.4633V13.2876H14.2317V12.4313Z" fill="#FFA600"/>
<path d="M13.4633 14.1438V13.2876H12.695V14.1438V15V15.8562H13.4633V15V14.1438Z" fill="#FFA600"/>
<path d="M13.4633 11.5687H12.695V12.4313H13.4633V11.5687Z" fill="#313131"/>
<path d="M12.695 15.8562H11.9208V16.7125H12.695V15.8562Z" fill="#313131"/>
<path d="M18.0733 13.2876V14.1438V15V15.8562H18.8475V15V14.1438V13.2876H18.0733Z" fill="#F78A15"/>
<path d="M18.0733 15.8562H17.305V16.7124H18.0733V15.8562Z" fill="#F78A15"/>
<path d="M18.0733 12.4313H17.305V13.2876H18.0733V12.4313Z" fill="#F78A15"/>
<path d="M17.305 16.7124H16.5367V17.5687H17.305V16.7124Z" fill="#F78A15"/>
<path d="M17.305 11.5687H16.5367V12.4313H17.305V11.5687Z" fill="#F78A15"/>
<path d="M15 17.5687H14.2317V18.4249H15H15.7683H16.5367V17.5687H15.7683H15Z" fill="#F78A15"/>
<path d="M15.7683 11.5687H16.5367V10.7124H15.7683H15H14.2317V11.5687H15H15.7683Z" fill="#F78A15"/>
<path d="M14.2317 16.7124H13.4633V17.5687H14.2317V16.7124Z" fill="#F78A15"/>
<path d="M14.2317 11.5687H13.4633V12.4313H14.2317V11.5687Z" fill="#F78A15"/>
<path d="M13.4633 15.8562H12.695V16.7124H13.4633V15.8562Z" fill="#F78A15"/>
<path d="M13.4633 12.4313H12.695V13.2876H13.4633V12.4313Z" fill="#F78A15"/>
<path d="M12.695 14.1438V13.2876H11.9208V14.1438V15V15.8562H12.695V15V14.1438Z" fill="#F78A15"/>
<path d="M12.695 12.4313H11.9208V13.2876H12.695V12.4313Z" fill="#313131"/>
<path d="M22.6892 14.1438V13.2876H21.9209V12.4313H21.1525H20.3842V11.5687H19.6158V10.7124H18.8475H18.0734V11.5687H18.8475V12.4313H19.6158V13.2876V14.1438V15V15.8562V16.7124H18.8475V17.5687H18.0734V18.4249H18.8475H19.6158V17.5687H20.3842H21.1525V16.7124H21.9209V15.8562H22.6892V15H23.4575V14.1438H22.6892Z" fill="#E5E5E5"/>
<path d="M18.0734 18.4249H17.305V19.2876H18.0734V18.4249Z" fill="#E5E5E5"/>
<path d="M16.5367 14.1438H15.7683V15H16.5367V14.1438Z" fill="#E5E5E5"/>
<path d="M15.7683 13.2876H15V14.1438H15.7683V13.2876Z" fill="#E5E5E5"/>
<path d="M12.695 17.5687H11.9208V18.4249H12.695V17.5687Z" fill="#E5E5E5"/>
<path d="M11.1525 16.7124V15.8562V15V14.1438V13.2876V12.4313H10.3842H9.61584V13.2876H8.8475V14.1438H8.07916V15H7.31082V15.8562H8.07916V16.7124H8.8475H9.61584V17.5687H10.3842H11.1525H11.9209V16.7124H11.1525Z" fill="#E5E5E5"/>
<path d="M11.9209 11.5687H11.1525V12.4313H11.9209V11.5687Z" fill="#E5E5E5"/>
<path d="M24.2259 14.1438H23.4575V15H24.2259V14.1438Z" fill="#CCCCCC"/>
<path d="M23.4575 15H22.6892V15.8562H23.4575V15Z" fill="#CCCCCC"/>
<path d="M23.4575 13.2876H22.6892V14.1438H23.4575V13.2876Z" fill="#CCCCCC"/>
<path d="M22.6892 15.8562H21.9208V16.7125H22.6892V15.8562Z" fill="#CCCCCC"/>
<path d="M22.6892 12.4314H21.9208V13.2876H22.6892V12.4314Z" fill="#CCCCCC"/>
<path d="M21.9208 16.7125H21.1525V17.5687H21.9208V16.7125Z" fill="#CCCCCC"/>
<path d="M21.1525 11.5687H20.3842V12.4313H21.1525H21.9209V11.5687H21.1525Z" fill="#CCCCCC"/>
<path d="M19.6158 17.5687V18.4249H20.3842H21.1525V17.5687H20.3842H19.6158Z" fill="#CCCCCC"/>
<path d="M20.3842 10.7125H19.6158V11.5687H20.3842V10.7125Z" fill="#CCCCCC"/>
<path d="M18.0734 18.4249V19.2876H18.8475H19.6158V18.4249H18.8475H18.0734Z" fill="#CCCCCC"/>
<path d="M18.8475 10.7125V9.85623H18.0734H17.305V10.7125H18.0734H18.8475Z" fill="#CCCCCC"/>
<path d="M16.5367 19.2876H15.7683H15H14.2317H13.4633V20.1438H14.2317H15H15.7683H16.5367H17.305H18.0733V19.2876H17.305H16.5367Z" fill="#CCCCCC"/>
<path d="M12.695 18.4249H11.9208V19.2876H12.695H13.4633V18.4249H12.695Z" fill="#CCCCCC"/>
<path d="M13.4633 9.85623H12.695V10.7125H13.4633V9.85623Z" fill="#CCCCCC"/>
<path d="M12.695 11.5687V10.7125H11.9208H11.1525V11.5687H11.9208H12.695Z" fill="#CCCCCC"/>
<path d="M11.1525 17.5687H10.3842H9.61584V18.4249H10.3842H11.1525H11.9209V17.5687H11.1525Z" fill="#CCCCCC"/>
<path d="M11.1525 12.4313V11.5687H10.3842H9.61584V12.4313H10.3842H11.1525Z" fill="#CCCCCC"/>
<path d="M8.8475 16.7125H8.07916V17.5687H8.8475H9.61584V16.7125H8.8475Z" fill="#CCCCCC"/>
<path d="M9.61584 12.4314H8.8475V13.2876H9.61584V12.4314Z" fill="#CCCCCC"/>
<path d="M8.8475 13.2876H8.07916V14.1438H8.8475V13.2876Z" fill="#CCCCCC"/>
<path d="M8.07916 15.8562H7.31082V16.7125H8.07916V15.8562Z" fill="#CCCCCC"/>
<path d="M8.07916 15V14.1438H7.31082H6.54248V15H5.76834V15.8562H6.54248H7.31082V15H8.07916Z" fill="#CCCCCC"/>
<path d="M25 14.1438H24.2259V15H25V14.1438Z" fill="black"/>
<path d="M24.2259 15H23.4575V15.8562H24.2259V15Z" fill="black"/>
<path d="M24.2259 13.2876H23.4575V14.1438H24.2259V13.2876Z" fill="black"/>
<path d="M23.4575 15.8562H22.6892V16.7125H23.4575V15.8562Z" fill="black"/>
<path d="M23.4575 12.4313H22.6892V13.2876H23.4575V12.4313Z" fill="black"/>
<path d="M22.6892 16.7124H21.9208V17.5687H22.6892V16.7124Z" fill="black"/>
<path d="M22.6892 11.5687H21.9208V12.4313H22.6892V11.5687Z" fill="black"/>
<path d="M21.9208 17.5687H21.1525V18.4249H21.9208V17.5687Z" fill="black"/>
<path d="M21.1525 11.5687H21.9208V10.7124H21.1525H20.3842V11.5687H21.1525Z" fill="black"/>
<path d="M19.6158 18.4249V19.2876H20.3842H21.1525V18.4249H20.3842H19.6158Z" fill="black"/>
<path d="M18.8475 14.1438V15V15.8562V16.7124H19.6158V15.8562V15V14.1438V13.2876V12.4313H18.8475V13.2876V14.1438Z" fill="black"/>
<path d="M19.6158 10.7125H20.3842V9.85623H19.6158H18.8475V10.7125H19.6158Z" fill="black"/>
<path d="M18.0734 19.2876V20.1438H18.8475H19.6158V19.2876H18.8475H18.0734Z" fill="black"/>
<path d="M18.8475 16.7124H18.0734V17.5687H18.8475V16.7124Z" fill="black"/>
<path d="M18.8475 11.5687H18.0734V12.4313H18.8475V11.5687Z" fill="black"/>
<path d="M18.0734 17.5687H17.305V18.4249H18.0734V17.5687Z" fill="black"/>
<path d="M18.0734 10.7124H17.305V11.5687H18.0734V10.7124Z" fill="black"/>
<path d="M16.5367 20.1438H15.7683H15H14.2317H13.4633V21H14.2317H15H15.7683H16.5367H17.305H18.0733V20.1438H17.305H16.5367Z" fill="black"/>
<path d="M15.7683 18.4249H15H14.2317H13.4633V19.2876H14.2317H15H15.7683H16.5367H17.305V18.4249H16.5367H15.7683Z" fill="black"/>
<path d="M13.4633 10.7124H14.2317H15H15.7683H16.5367H17.305V9.85622H18.0733H18.8475V9H18.0733H17.305H16.5367H15.7683H15H14.2317H13.4633H12.695V9.85622H13.4633V10.7124Z" fill="black"/>
<path d="M12.695 19.2876H11.9208V20.1438H12.695H13.4633V19.2876H12.695Z" fill="black"/>
<path d="M13.4633 17.5687H12.695V18.4249H13.4633V17.5687Z" fill="black"/>
<path d="M13.4633 10.7124H12.695V11.5687H13.4633V10.7124Z" fill="black"/>
<path d="M12.695 16.7124H11.9208V17.5687H12.695V16.7124Z" fill="black"/>
<path d="M12.695 11.5687H11.9208V12.4313H12.695V11.5687Z" fill="black"/>
<path d="M12.695 10.7125V9.85623H11.9208H11.1525V10.7125H11.9208H12.695Z" fill="black"/>
<path d="M11.1525 18.4249H10.3842H9.61584V19.2876H10.3842H11.1525H11.9209V18.4249H11.1525Z" fill="black"/>
<path d="M11.9208 15V14.1438V13.2876V12.4313H11.1525V13.2876V14.1438V15V15.8562V16.7124H11.9208V15.8562V15Z" fill="black"/>
<path d="M11.1525 11.5687V10.7124H10.3842H9.61584V11.5687H10.3842H11.1525Z" fill="black"/>
<path d="M8.8475 17.5687H8.07916V18.4249H8.8475H9.61584V17.5687H8.8475Z" fill="black"/>
<path d="M9.61584 11.5687H8.8475V12.4313H9.61584V11.5687Z" fill="black"/>
<path d="M8.8475 12.4313H8.07916V13.2876H8.8475V12.4313Z" fill="black"/>
<path d="M8.07916 16.7124H7.31082V17.5687H8.07916V16.7124Z" fill="black"/>
<path d="M8.07916 14.1438V13.2876H7.31082H6.54248V14.1438H7.31082H8.07916Z" fill="black"/>
<path d="M6.54248 15.8562H5.76834V16.7125H6.54248H7.31082V15.8562H6.54248Z" fill="black"/>
<path d="M6.54248 14.1438H5.76834V15H6.54248V14.1438Z" fill="black"/>
<path d="M5.76834 15H5V15.8562H5.76834V15Z" fill="black"/>
</g>
<defs>
<clipPath id="clip0_4_154">
<rect width="20" height="12" fill="white" transform="translate(5 9)"/>
</clipPath>
</defs>
</svg>
