<svg width="30" height="30" viewBox="0 0 30 30" fill="none" xmlns="http://www.w3.org/2000/svg">
<path d="M21.9998 15.7241C21.9998 17.1334 21.433 18.4582 20.404 19.4547C19.375 20.4512 18.0069 21 16.5517 21H8V19.3592H16.5517C18.6215 19.3592 20.3054 17.7286 20.3054 15.7241C20.3054 13.7197 18.6215 12.089 16.5517 12.089H13.6293V13.1105C13.6293 13.4517 13.2358 13.6545 12.9434 13.4639L10.1194 11.6221C9.86041 11.4532 9.86041 11.0841 10.1194 10.9152L12.9436 9.07343C13.236 8.88276 13.6296 9.08559 13.6296 9.42678V10.4483H16.5519C18.0072 10.4483 19.3752 10.9971 20.4042 11.9936C21.4333 12.9901 22 14.3149 22 15.7241H21.9998Z" fill="black"/>
</svg>
